<svg xmlns="http://www.w3.org/2000/svg" height="2em" viewBox="0 0 362 31">
    <path
        d="M140.6 0c-6.8 0-11.1 3.4-12.8 10.1 2.6-3.4 5.5-4.7 8.9-3.8 1.9.5 3.3 1.9 4.9 3.4 2.5 2.5 5.4 5.4 11.7 5.4 6.8 0 11.1-3.4 12.8-10.1-2.6 3.4-5.5 4.6-8.9 3.8-1.9-.5-3.3-1.9-4.9-3.4-2.5-2.5-5.4-5.4-11.7-5.4zm-12.8 15.2c-6.8 0-11.1 3.4-12.8 10.1 2.6-3.4 5.5-4.6 8.9-3.8 1.9.5 3.3 1.9 4.9 3.4 2.5 2.5 5.4 5.4 11.7 5.4 6.8 0 11.1-3.4 12.8-10.1-2.6 3.4-5.5 4.6-8.9 3.8-1.9-.5-3.3-1.9-4.9-3.4-2.5-2.5-5.4-5.4-11.7-5.4z"
        style="fill-rule:evenodd;clip-rule:evenodd;fill:#38bdf8" />
    <path
        d="M191.6 12.8h-4.5v8.6c0 2.3 1.5 2.2 4.5 2.1V27c-6 .7-8.3-.9-8.3-5.6v-8.6H180V9.1h3.3V4.3l3.9-1.1v5.9h4.5c-.1 0-.1 3.7-.1 3.7zm17-3.7h3.9V27h-3.9v-2.6c-1.4 1.9-3.5 3-6.3 3-4.9 0-8.9-4.1-8.9-9.4 0-5.3 4.1-9.4 8.9-9.4 2.8 0 4.9 1.1 6.3 3V9.1zm-5.7 14.6c3.2 0 5.7-2.4 5.7-5.7s-2.4-5.7-5.7-5.7-5.7 2.4-5.7 5.7c0 3.4 2.5 5.7 5.7 5.7zm16-17.3c-1.4 0-2.5-1.1-2.5-2.5s1.1-2.5 2.5-2.5 2.5 1.1 2.5 2.5-1.1 2.5-2.5 2.5zM217 27V9.1h3.9V27H217zm8.3 0V.9h3.9V27h-3.9zm29.1-17.9h4.1L252.8 27H249l-3.7-12-3.8 12h-3.8l-5.6-17.8h4.1l3.5 12.3 3.8-12.3h3.7l3.7 12.3c0-.1 3.5-12.4 3.5-12.4zm8.9-2.7c-1.4 0-2.5-1.1-2.5-2.5s1.1-2.5 2.5-2.5 2.5 1.1 2.5 2.5-1.1 2.5-2.5 2.5zm-2 20.6V9.1h3.9V27h-3.9zm17.9-18.4c4 0 6.9 2.7 6.9 7.4v11h-3.9V16.4c0-2.7-1.6-4.1-4-4.1-2.5 0-4.6 1.5-4.6 5.1V27h-3.9V9.1h3.9v2.3c1.2-1.9 3.1-2.8 5.6-2.8zM304.4 2h3.9v25h-3.9v-2.6c-1.4 1.9-3.5 3-6.3 3-4.9 0-8.9-4.1-8.9-9.4 0-5.3 4.1-9.4 8.9-9.4 2.8 0 4.9 1.1 6.3 3V2zm-5.6 21.7c3.2 0 5.7-2.4 5.7-5.7s-2.4-5.7-5.7-5.7-5.7 2.4-5.7 5.7c0 3.4 2.4 5.7 5.7 5.7zm22.5 3.7c-5.4 0-9.5-4.1-9.5-9.4 0-5.3 4.1-9.4 9.5-9.4 3.5 0 6.6 1.8 8 4.6l-3.3 1.9c-.8-1.7-2.5-2.7-4.7-2.7-3.2 0-5.6 2.4-5.6 5.6 0 3.2 2.4 5.6 5.6 5.6 2.2 0 3.9-1.1 4.8-2.7l3.3 1.9c-1.5 2.8-4.6 4.6-8.1 4.6zM335.8 14c0 3.2 9.7 1.3 9.7 7.9 0 3.6-3.1 5.5-7 5.5-3.6 0-6.2-1.6-7.3-4.2l3.3-1.9c.6 1.6 2 2.6 4 2.6 1.7 0 3.1-.6 3.1-2 0-3.2-9.7-1.4-9.7-7.8 0-3.4 2.9-5.5 6.6-5.5 2.9 0 5.4 1.4 6.6 3.7l-3.3 1.8c-.6-1.4-1.9-2-3.4-2-1.4 0-2.6.7-2.6 1.9zm16.5 0c0 3.2 9.7 1.3 9.7 7.9 0 3.6-3.1 5.5-7 5.5-3.6 0-6.2-1.6-7.3-4.2l3.3-1.9c.6 1.6 2 2.6 4 2.6 1.7 0 3.1-.6 3.1-2 0-3.2-9.7-1.4-9.7-7.8 0-3.4 2.9-5.5 6.6-5.5 2.9 0 5.4 1.4 6.6 3.7l-3.3 1.8c-.6-1.4-1.9-2-3.4-2-1.3 0-2.6.7-2.6 1.9z"
        style="fill-rule:evenodd;clip-rule:evenodd" />
    <path
        d="M14.7 9.1V27h-2.9L3.4 14.8h-.2V27H0V9.1h2.9l8.4 12.2h.2V9.1h3.2zM19.4 27V9.1H31v2.7h-8.4v4.9h7.8v2.7h-7.8v4.9h8.5V27H19.4zM45.3 14c-.1-.8-.4-1.4-1-1.8-.6-.4-1.4-.6-2.3-.6-.7 0-1.3.1-1.7.3s-.9.5-1.1.8c-.3.3-.4.7-.4 1.2 0 .4.1.7.3 1 .2.3.4.5.7.7.3.2.6.3 1 .5.4.1.7.2 1.1.3l1.7.4c.7.2 1.3.4 2 .6.6.3 1.2.6 1.7 1s.9.9 1.2 1.5c.3.6.4 1.3.4 2 0 1-.3 2-.8 2.8-.5.8-1.3 1.4-2.3 1.9-1 .4-2.2.7-3.7.7-1.4 0-2.6-.2-3.6-.6-1-.4-1.8-1.1-2.4-1.9-.6-.8-.9-1.8-.9-3h3.2c0 .6.2 1.1.6 1.6.3.4.8.7 1.3.9.5.2 1.2.3 1.8.3.7 0 1.3-.1 1.9-.3.5-.2 1-.5 1.3-.9s.5-.8.5-1.3-.1-.9-.4-1.2c-.3-.3-.6-.6-1.1-.8-.5-.2-1-.4-1.7-.6l-2-.5c-1.5-.4-2.6-1-3.5-1.7-.9-.8-1.3-1.8-1.3-3.1 0-1.1.3-2 .9-2.8S38.1 10 39 9.6c1-.4 2.1-.7 3.4-.7 1.3 0 2.4.2 3.3.7 1 .4 1.7 1 2.3 1.8s.8 1.7.8 2.7h-3.5zM52 11.8V9.1h14.3v2.7h-5.5V27h-3.2V11.8H52zM70.3 27V9.1h11.6v2.7h-8.4v4.9h7.8v2.7h-7.8v4.9H82V27H70.3zM92.5 27h-6.1V9.1h6.2c1.8 0 3.3.4 4.6 1.1 1.3.7 2.3 1.7 2.9 3.1.7 1.3 1 2.9 1 4.8s-.3 3.5-1 4.8c-.7 1.3-1.7 2.4-3 3.1-1.2.6-2.8 1-4.6 1zm-2.8-2.8h2.7c1.2 0 2.3-.2 3.1-.7.8-.5 1.5-1.1 1.9-2.1.4-.9.6-2.1.6-3.4 0-1.4-.2-2.5-.6-3.4-.4-.9-1-1.6-1.9-2-.8-.5-1.8-.7-3-.7h-2.8v12.3z"
        style="fill:#333333" />
</svg>